<svg width="26" height="32" viewBox="0 0 26 32" fill="none" xmlns="http://www.w3.org/2000/svg">
<path d="M10.987 32.0002C4.92849 32.0002 0 27.0421 0 20.9484C0 14.8546 4.92899 9.89648 10.987 9.89648C17.045 9.89648 21.974 14.8546 21.974 20.9484C21.974 27.0421 17.0459 32.0002 10.987 32.0002ZM10.987 10.9521C5.50765 10.9521 1.04938 15.4357 1.04938 20.9478C1.04938 26.46 5.50765 30.9436 10.987 30.9436C16.4663 30.9436 20.9251 26.459 20.9251 20.9469C20.9251 15.4347 16.4673 10.9521 10.987 10.9521Z" fill="#2196F3"/>
<path d="M18.96 21.4385C18.6182 20.1644 15.4851 20.0268 13.6203 20.4939C12.6437 20.7395 11.6456 21.0588 10.6162 21.2425C11.3697 21.915 12.1788 22.551 13.34 22.7092C16.2211 23.1002 18.0112 22.191 18.96 21.4385Z" fill="#2196F3"/>
<path d="M13.34 22.7099C12.1764 22.5517 11.3697 21.9156 10.6162 21.2432C9.45013 20.2024 8.41298 19.0746 6.37723 19.499C3.14069 20.1739 2.71488 24.0248 5.21404 26.4995C6.28706 27.6298 7.66455 28.4207 9.17779 28.7753C10.691 29.1299 12.2742 29.0327 13.7333 28.4957C15.1924 27.9586 16.4641 27.005 17.3925 25.7519C18.3209 24.4986 18.8656 23.0002 18.96 21.4401C18.0112 22.1917 16.221 23.1009 13.34 22.7099Z" fill="#673AB7"/>
<path d="M15.034 14.3749C14.6301 15.2458 18.2304 16.212 18.6611 19.1041C18.8687 16.2571 15.5335 13.2982 15.034 14.3749Z" fill="#2196F3"/>
<path d="M7.46619 18.0099C8.11524 17.7395 8.42345 16.991 8.15463 16.3381C7.8858 15.6852 7.14167 15.3751 6.49262 15.6456C5.84357 15.916 5.53536 16.6645 5.80418 17.3174C6.07306 17.9703 6.81714 18.2803 7.46619 18.0099Z" fill="#673AB7"/>
<path d="M10.3549 14.4961C10.6585 14.1907 10.6585 13.6956 10.3549 13.3902C10.0513 13.0848 9.55909 13.0848 9.25551 13.3902C8.95194 13.6956 8.95194 14.1907 9.25551 14.4961C9.55909 14.8014 10.0513 14.8014 10.3549 14.4961Z" fill="#2196F3"/>
<path d="M13.1014 9.46887C14.2245 6.13171 13.4696 3.46551 11.1614 2.19922C9.58359 2.52194 8.647 3.29016 8.12549 4.35064C11.2204 4.09866 13.1844 6.04722 13.1014 9.46887Z" fill="#2196F3"/>
<path d="M25.6983 6.55334C20.1389 4.54633 16.6304 5.23449 16.0786 9.80748C19.2648 13.1142 22.474 11.5316 25.6983 6.55334Z" fill="#2196F3"/>
<path d="M21.2765 4.74192C21.5343 3.63378 21.6681 2.32426 21.6881 0.833984C15.9226 2.12533 13.3224 4.59308 15.2839 8.75496C15.3816 8.77854 15.4754 8.79769 15.5696 8.81735C16.0281 5.56072 18.0463 4.35485 21.2765 4.74192Z" fill="#2196F3"/>
</svg>
